<?xml version="1.0" encoding="iso-8859-1"?>
<!-- Generator: Adobe Illustrator 19.0.0, SVG Export Plug-In . SVG Version: 6.00 Build 0)  -->
<svg version="1.1" id="Capa_1" xmlns="http://www.w3.org/2000/svg" xmlns:xlink="http://www.w3.org/1999/xlink" x="0px" y="0px"
	 viewBox="0 0 512 512" style="enable-background:new 0 0 512 512;" xml:space="preserve">
<path style="fill:#303C42;" d="M469.333,64H42.667C19.146,64,0,83.135,0,106.667v298.667C0,428.865,19.146,448,42.667,448h426.667
	C492.854,448,512,428.865,512,405.333V106.667C512,83.135,492.854,64,469.333,64z"/>
<path style="fill:#FAFAFA;" d="M490.667,405.333c0,11.76-9.563,21.333-21.333,21.333H42.667c-11.771,0-21.333-9.573-21.333-21.333
	V106.667c0-11.76,9.563-21.333,21.333-21.333h426.667c11.771,0,21.333,9.573,21.333,21.333V405.333z"/>
<path style="fill:#303C42;" d="M437.333,128H352c-5.896,0-10.667,4.771-10.667,10.667v106.667c0,5.896,4.771,10.667,10.667,10.667
	h85.333c5.896,0,10.667-4.771,10.667-10.667V138.667C448,132.771,443.229,128,437.333,128z"/>
<linearGradient id="SVGID_1_" gradientUnits="userSpaceOnUse" x1="-28.4481" y1="637.7278" x2="-21.1003" y2="630.3831" gradientTransform="matrix(21.3333 0 0 -21.3333 996.3334 13791.667)">
	<stop  offset="0" style="stop-color:#000000;stop-opacity:0.1"/>
	<stop  offset="1" style="stop-color:#000000;stop-opacity:0"/>
</linearGradient>
<path style="fill:url(#SVGID_1_);" d="M444.967,131.257c1.863,1.921,3.033,4.521,3.033,7.41v106.667
	c0,5.896-4.771,10.667-10.667,10.667H352c-2.889,0-5.49-1.169-7.409-3.031l146.076,146.076V177.37L444.967,131.257z"/>
<rect x="362.667" y="149.333" style="fill:#FFCA28;" width="64" height="85.333"/>
<g>
	<path style="fill:#303C42;" d="M245.333,362.667H74.667c-5.896,0-10.667,4.771-10.667,10.667S68.771,384,74.667,384h170.667
		c5.896,0,10.667-4.771,10.667-10.667S251.229,362.667,245.333,362.667z"/>
	<path style="fill:#303C42;" d="M74.667,320H160c5.896,0,10.667-4.771,10.667-10.667s-4.771-10.667-10.667-10.667H74.667
		c-5.896,0-10.667,4.771-10.667,10.667S68.771,320,74.667,320z"/>
</g>
<linearGradient id="SVGID_2_" gradientUnits="userSpaceOnUse" x1="-47.4107" y1="640.4102" x2="-21.9956" y2="628.5586" gradientTransform="matrix(21.3333 0 0 -21.3333 996.3334 13791.667)">
	<stop  offset="0" style="stop-color:#FFFFFF;stop-opacity:0.2"/>
	<stop  offset="1" style="stop-color:#FFFFFF;stop-opacity:0"/>
</linearGradient>
<path style="fill:url(#SVGID_2_);" d="M469.333,64H42.667C19.146,64,0,83.135,0,106.667v298.667C0,428.865,19.146,448,42.667,448
	h426.667C492.854,448,512,428.865,512,405.333V106.667C512,83.135,492.854,64,469.333,64z"/>
<g>
</g>
<g>
</g>
<g>
</g>
<g>
</g>
<g>
</g>
<g>
</g>
<g>
</g>
<g>
</g>
<g>
</g>
<g>
</g>
<g>
</g>
<g>
</g>
<g>
</g>
<g>
</g>
<g>
</g>
</svg>
